<svg width="16" height="16" viewBox="0 0 16 16" fill="none" xmlns="http://www.w3.org/2000/svg">
<path d="M8 1C4.14027 1 1 4.14027 1 8C1 11.8597 4.14027 15 8 15C11.8597 15 15 11.8597 15 8C15 4.14027 11.8598 1 8 1ZM8 13.7826C4.81165 13.7826 2.21737 11.1884 2.21737 8C2.21737 4.81165 4.81165 2.2174 8 2.2174C11.1884 2.2174 13.7826 4.81165 13.7826 8C13.7826 11.1884 11.1884 13.7826 8 13.7826Z" fill="#1B75BB"/>
<path d="M11.2596 4.74159C11.1714 4.65272 11.0381 4.62715 10.9242 4.67708L6.66334 6.50317C6.59152 6.53362 6.53429 6.59142 6.50324 6.66327L4.67715 10.9241C4.62785 11.0386 4.65341 11.1713 4.74166 11.2595C4.8001 11.3167 4.87802 11.3478 4.95714 11.3478C4.99732 11.3478 5.03809 11.3393 5.07706 11.3234L9.33794 9.49736C9.40975 9.46632 9.46699 9.40911 9.49803 9.33726L11.3241 5.0764C11.3728 4.96195 11.3473 4.82925 11.2596 4.74159ZM8.00064 8.60865C7.66524 8.60865 7.39195 8.33534 7.39195 7.99997C7.39195 7.66457 7.66526 7.39128 8.00064 7.39128C8.33604 7.39128 8.60932 7.66459 8.60932 7.99997C8.60935 8.33534 8.33604 8.60865 8.00064 8.60865Z" fill="#1B75BB"/>
</svg>
