<svg width="18" height="18" viewBox="0 0 18 18" fill="none" xmlns="http://www.w3.org/2000/svg">
<path fill-rule="evenodd" clip-rule="evenodd" d="M14.7739 4.41491L15.3679 2.844H18V0H0V18H18V15.1552H15.4955L14.5612 14.094L13.6268 15.1552H6.57982V9.46636H4.24554L7.17464 2.88736H10.0186L10.6977 4.37318V2.88573H14.2208L14.7739 4.41491ZM12.8209 5.47609V4.84036L13.0745 5.47609L14.2634 8.61791H15.3679L16.5567 5.47609L16.7686 4.84036V8.57454H18V3.77755H15.9627L15.0292 6.19773L14.7739 6.87682L14.5186 6.19773L13.5851 3.77836H11.547V8.57454H12.8209V5.47609ZM10.1888 8.57454H11.5895L9.468 3.77755H7.81118L5.68882 8.57454H7.08955L7.47082 7.64018H9.80673L10.1888 8.57536V8.57454ZM8.40518 5.43355L8.65882 4.84036L8.91491 5.43436L9.42464 6.66573H7.93882L8.40518 5.43355ZM7.55673 9.46718V14.2642H11.547V13.2464H8.74554V12.3955H11.4619V11.3785H8.74554V10.5275H11.547V9.50891H7.55673V9.46718ZM16.047 14.2208H17.6179L15.3679 11.844L17.6179 9.46718H16.047L14.6037 11.0381L13.1596 9.46718H11.547L13.797 11.8865L11.547 14.265H13.0754L14.5186 12.6941L16.047 14.2208ZM16.641 11.844L17.9992 13.2455V10.4858L16.641 11.844Z" fill="#006FCF"/>
</svg>
