<svg width="20" height="20" viewBox="0 0 20 20" fill="none" xmlns="http://www.w3.org/2000/svg">
<path fill-rule="evenodd" clip-rule="evenodd" d="M11.2552 9.36593H8.68007C8.44582 7.63454 7.50459 6.07657 6.07912 5.06069L3.94287 3.29741C5.49963 1.90349 7.49331 1.09149 9.5836 1C10.5554 3.6901 11.1188 6.50986 11.2552 9.36593ZM16.9413 4.21788C15.5828 5.6129 14.7446 7.42984 14.5663 9.36615H12.5914C12.4537 6.52963 11.9171 3.72646 10.9973 1.03882C13.3173 1.28912 15.4488 2.42913 16.9413 4.21788ZM19 10.6531C18.9039 12.0886 18.4611 13.4795 17.7092 14.7074C16.6761 13.5847 16.0236 12.1662 15.844 10.6531H19ZM18.9999 9.36593C18.9038 7.93049 18.461 6.53953 17.7092 5.31168C16.6796 6.43537 16.0316 7.85398 15.8568 9.36593H18.9999ZM6.0923 14.9586C7.50703 13.9359 8.43996 12.3801 8.67392 10.6533L11.2877 10.6341C11.1507 13.4901 10.5873 16.3097 9.61615 19C7.47877 18.9087 5.44425 18.0597 3.8786 16.6061L6.0923 14.9586ZM12.5459 10.6533C12.4127 13.4824 11.8826 16.279 10.9712 18.9614C13.2898 18.7065 15.4197 17.5674 16.9152 15.7823C15.5576 14.3867 14.7196 12.5701 14.5402 10.6341L12.5459 10.6533ZM5.29187 6.08392L3.05881 4.24342C1.84437 5.69957 1.12364 7.50182 1 9.39165H7.37004C7.1412 8.06086 6.39719 6.87296 5.29832 6.08392H5.29187ZM1 10.653H7.37004H7.37649C7.13816 11.9732 6.39254 13.1484 5.29832 13.9286L2.97491 15.6662C1.81935 14.235 1.13025 12.4858 1 10.653Z" fill="black"/>
</svg>
