<svg width="12" height="13" viewBox="0 0 12 13" fill="none" xmlns="http://www.w3.org/2000/svg">
<g clip-path="url(#clip0_305_3725)">
<path fill-rule="evenodd" clip-rule="evenodd" d="M4.42502 1.04875C4.42502 0.745658 4.19 0.500002 3.90004 0.500002C3.61008 0.500002 3.37498 0.745658 3.37498 1.04875V1.32648C3.11465 1.33071 2.8833 1.34045 2.67949 1.36268C2.30182 1.40402 1.95939 1.49305 1.65485 1.71335C1.44707 1.86365 1.26699 2.05191 1.12319 2.26908C0.912425 2.58732 0.827266 2.94525 0.7878 3.34002C0.75317 3.68674 0.750269 4.10989 0.750006 4.61583V4.69998V4.75795V7.94737C0.749918 8.69042 0.749918 9.30319 0.812321 9.7882C0.877801 10.2973 1.02062 10.7471 1.36506 11.1071C1.7095 11.4671 2.13975 11.6164 2.62684 11.6849C3.09081 11.7501 3.67706 11.75 4.38794 11.75H7.612C8.32297 11.75 8.90919 11.7501 9.37317 11.6849C9.86026 11.6164 10.2905 11.4671 10.6349 11.1071C10.9794 10.7471 11.1222 10.2973 11.1877 9.7882C11.2501 9.30321 11.25 8.69042 11.25 7.94737V4.75795V4.70779V4.61583C11.2497 4.10989 11.2468 3.68673 11.2122 3.34002C11.1727 2.94525 11.0876 2.58731 10.8768 2.26908C10.733 2.05189 10.5529 1.86366 10.3452 1.71335C10.0406 1.49304 9.69818 1.40403 9.32051 1.36268C9.11669 1.34045 8.88536 1.33071 8.62503 1.32648V1.04875C8.62503 0.745656 8.38993 0.5 8.09996 0.5C7.81 0.5 7.57499 0.745656 7.57499 1.04875V1.32317H4.42494L4.42502 1.04875ZM10.1999 4.61588C10.1996 4.10194 10.1963 3.7384 10.1679 3.45415C10.1373 3.14888 10.0825 2.99819 10.0134 2.89365C9.94146 2.78515 9.85146 2.69098 9.74758 2.61584C9.64765 2.54354 9.50341 2.4863 9.21135 2.45433C9.04814 2.43651 8.85758 2.42815 8.62502 2.4242V2.69514C8.62502 2.99823 8.38991 3.24398 8.09995 3.24398C7.80999 3.24398 7.57497 2.99823 7.57497 2.69514V2.42081H4.42493V2.69514C4.42493 2.99823 4.18991 3.24398 3.89995 3.24398C3.60999 3.24398 3.37489 2.99823 3.37489 2.69514V2.4242C3.14232 2.42815 2.95177 2.43651 2.78855 2.45433C2.4965 2.4863 2.35225 2.54354 2.25232 2.61584C2.14843 2.69099 2.05843 2.78516 1.98655 2.89365C1.91738 2.9982 1.86253 3.14888 1.83203 3.45415C1.80365 3.7384 1.80031 4.10194 1.79995 4.61588H10.1999ZM1.79991 5.71346V7.90854C1.79991 8.70019 1.80105 9.23865 1.85291 9.64186C1.90274 10.0294 1.99064 10.2088 2.10743 10.3309C2.22433 10.4531 2.39598 10.545 2.76671 10.597C3.15248 10.6512 3.66769 10.6524 4.42496 10.6524H7.57501C8.33237 10.6524 8.84751 10.6512 9.23326 10.597C9.60399 10.5449 9.77563 10.4531 9.89245 10.3309C10.0093 10.2088 10.0972 10.0294 10.1471 9.64186C10.1989 9.23863 10.2001 8.70019 10.2001 7.90854V5.71346H1.79991Z" fill="white"/>
</g>
<defs>
<clipPath id="clip0_305_3725">
<rect width="12" height="12" fill="white" transform="translate(0 0.5)"/>
</clipPath>
</defs>
</svg>
