<svg width="24" height="16" viewBox="0 0 24 16" fill="none" xmlns="http://www.w3.org/2000/svg">
<path fill-rule="evenodd" clip-rule="evenodd" d="M22.3831 2.47865e-06C22.8119 2.47865e-06 23.2231 0.170349 23.5264 0.473568C23.8296 0.776786 23.9999 1.18804 23.9999 1.61686V14.5517L23.9959 14.6729C23.9799 14.887 23.9215 15.0957 23.8239 15.2868C23.7263 15.478 23.5916 15.6477 23.4276 15.7861L0.320312 0.38158C0.611911 0.134583 0.981844 -0.000667695 1.36399 2.47865e-06H22.3831Z" fill="#0067B3"/>
<path fill-rule="evenodd" clip-rule="evenodd" d="M0 8.08398H11.8734V15.916L0 8.08398Z" fill="#F9A51A"/>
<path fill-rule="evenodd" clip-rule="evenodd" d="M0 12.126H5.81016V15.9159L0 12.126Z" fill="#EC1C24"/>
<path d="M20.0086 2.02148H17.4313V2.67873H18.2907V5.05308H19.1492V2.67793H20.0086V2.02148ZM13.0351 3.73939H14.5509V3.08214H13.0351V2.67793H14.652V2.02148H12.2776V5.05308H14.7538V4.29478H13.0359V3.73939H13.0351ZM16.1686 2.02148H15.4111V5.05308H17.5841V4.29478H16.1694V2.02148H16.1686ZM21.8275 2.02148H20.9682L19.9067 5.05308H20.665L20.8671 4.49689H21.9787L22.1808 5.05308H22.9391L21.8267 2.02148H21.8275ZM21.0701 3.84044L21.3732 2.88003L21.6764 3.84044H21.0701ZM10.1563 2.02148H8.8418V5.05308H10.1555C11.1159 5.05308 11.6713 4.49689 11.6713 3.53728C11.6204 2.57687 11.1151 2.02148 10.1555 2.02148H10.1563ZM10.2072 4.29559H9.54998V2.67873H10.0051C10.5605 2.67873 10.8637 2.88084 10.8637 3.53728C10.8637 3.99243 10.6616 4.24466 10.2064 4.29559H10.2072Z" fill="white"/>
</svg>
