<svg width="12" height="12" viewBox="0 0 12 12" fill="none" xmlns="http://www.w3.org/2000/svg">
<path d="M9.04033 1.62667L8.07366 2.59333C9.22699 3.29333 10.0003 4.55333 10.0003 6C10.0003 7.06087 9.5789 8.07828 8.82875 8.82843C8.07861 9.57857 7.06119 10 6.00033 10C4.93946 10 3.92204 9.57857 3.1719 8.82843C2.42175 8.07828 2.00033 7.06087 2.00033 6C2.00033 4.55333 2.77366 3.29333 3.92033 2.58667L2.96033 1.62667C1.57366 2.58667 0.666992 4.18667 0.666992 6C0.666992 7.41449 1.2289 8.77104 2.22909 9.77124C3.22928 10.7714 4.58584 11.3333 6.00033 11.3333C7.41481 11.3333 8.77137 10.7714 9.77156 9.77124C10.7718 8.77104 11.3337 7.41449 11.3337 6C11.3337 4.18667 10.427 2.58667 9.04033 1.62667ZM6.66699 0H5.33366V6.66667H6.66699" fill="#FF0000"/>
</svg>
