<svg width="14" height="14" viewBox="0 0 14 14" fill="none" xmlns="http://www.w3.org/2000/svg">
<path d="M6.33301 10.9997H7.66634V9.66634H6.33301V10.9997ZM6.99967 0.333008C6.1242 0.333008 5.25729 0.505446 4.44845 0.840478C3.63961 1.17551 2.90469 1.66657 2.28563 2.28563C1.03539 3.53587 0.333008 5.23156 0.333008 6.99967C0.333008 8.76778 1.03539 10.4635 2.28563 11.7137C2.90469 12.3328 3.63961 12.8238 4.44845 13.1589C5.25729 13.4939 6.1242 13.6663 6.99967 13.6663C8.76778 13.6663 10.4635 12.964 11.7137 11.7137C12.964 10.4635 13.6663 8.76778 13.6663 6.99967C13.6663 6.1242 13.4939 5.25729 13.1589 4.44845C12.8238 3.63961 12.3328 2.90469 11.7137 2.28563C11.0947 1.66657 10.3597 1.17551 9.5509 0.840478C8.74206 0.505446 7.87515 0.333008 6.99967 0.333008ZM6.99967 12.333C4.05967 12.333 1.66634 9.93967 1.66634 6.99967C1.66634 4.05967 4.05967 1.66634 6.99967 1.66634C9.93967 1.66634 12.333 4.05967 12.333 6.99967C12.333 9.93967 9.93967 12.333 6.99967 12.333ZM6.99967 2.99967C6.29243 2.99967 5.61415 3.28063 5.11406 3.78072C4.61396 4.28082 4.33301 4.9591 4.33301 5.66634H5.66634C5.66634 5.31272 5.80682 4.97358 6.05687 4.72353C6.30691 4.47348 6.64605 4.33301 6.99967 4.33301C7.3533 4.33301 7.69243 4.47348 7.94248 4.72353C8.19253 4.97358 8.33301 5.31272 8.33301 5.66634C8.33301 6.99967 6.33301 6.83301 6.33301 8.99967H7.66634C7.66634 7.49967 9.66634 7.33301 9.66634 5.66634C9.66634 4.9591 9.38539 4.28082 8.88529 3.78072C8.38519 3.28063 7.70692 2.99967 6.99967 2.99967Z" fill="black"/>
</svg>
