<svg width="14" height="14" viewBox="0 0 14 14" fill="none" xmlns="http://www.w3.org/2000/svg">
<path d="M7 3.21997L8.023 5.29297L8.319 5.89297L8.982 5.98997L11.264 6.31997L9.612 7.92997L9.132 8.39797L9.246 9.05797L9.636 11.331L7.591 10.258L7 9.94797L6.408 10.258L4.365 11.331L4.755 9.05697L4.867 8.39697L4.388 7.93097L2.736 6.32097L5.02 5.98997L5.682 5.89397L5.979 5.29397L7 3.21997ZM7 0.345971L4.836 4.72997L0 5.42997L3.5 8.84197L2.676 13.655L7 11.385L11.327 13.655L10.5 8.84197L14 5.42997L9.164 4.72997L7 0.344971V0.345971Z" fill="#8E8E93" fill-opacity="0.5"/>
</svg>
