<svg width="20" height="20" viewBox="0 0 20 20" fill="none" xmlns="http://www.w3.org/2000/svg">
<g clip-path="url(#clip0_261_1500)">
<path d="M10 1C7.61305 1 5.32387 1.94821 3.63604 3.63604C1.94821 5.32387 1 7.61305 1 10C1 12.3869 1.94821 14.6761 3.63604 16.364C5.32387 18.0518 7.61305 19 10 19C12.3869 19 14.6761 18.0518 16.364 16.364C18.0518 14.6761 19 12.3869 19 10C19 7.61305 18.0518 5.32387 16.364 3.63604C14.6761 1.94821 12.3869 1 10 1ZM10.5625 3.8125L13.375 2.125L14.5 2.6875L16.75 4.9375V5.5L16.1875 7.75L13.375 8.875L10.5625 6.625V3.8125ZM3.25 4.9375L5.5 2.6875L6.625 2.125L9.4375 3.8125V6.625L6.625 8.875L3.8125 7.75L3.25 5.5V4.9375ZM3.25 14.5L2.6875 13.9375L1.5625 11.6875V10.5625L3.25 8.3125L6.625 9.4375L7.1875 13.375L6.0625 15.0625L3.25 14.5ZM12.25 18.4375C10.9375 18.4375 9.625 18.4375 8.3125 18.4375L6.625 15.625L7.75 13.375H12.25L13.375 15.625L12.25 18.4375ZM18.4375 11.6875L17.3125 13.9375L16.75 14.5L13.9375 15.0625L12.8125 13.375L13.375 9.4375L16.75 8.3125L18.4375 10.5625V11.6875Z" fill="black" stroke="black" stroke-width="0.5"/>
</g>
<defs>
<clipPath id="clip0_261_1500">
<rect width="20" height="20" fill="white"/>
</clipPath>
</defs>
</svg>
