<svg width="26" height="12" viewBox="0 0 26 12" fill="none" xmlns="http://www.w3.org/2000/svg">
<path d="M4.91392 1.9223C5.22003 1.53943 5.42775 1.02534 5.37297 0.5C4.92487 0.522281 4.37805 0.795627 4.06147 1.1788C3.77721 1.50693 3.52562 2.04255 3.59121 2.54586C4.09422 2.58949 4.59677 2.29443 4.91392 1.9223ZM5.36725 2.64414C4.63675 2.60062 4.01565 3.05873 3.6668 3.05873C3.31776 3.05873 2.78355 2.66606 2.20577 2.67665C1.45374 2.68769 0.755951 3.11289 0.374331 3.78916C-0.410597 5.14203 0.167189 7.14881 0.93049 8.25065C1.30117 8.79576 1.74789 9.39597 2.33653 9.37441C2.89269 9.35259 3.11068 9.01429 3.78671 9.01429C4.46225 9.01429 4.65862 9.37441 5.24734 9.3635C5.85787 9.35258 6.23956 8.81811 6.61023 8.27247C7.03546 7.65107 7.20954 7.05105 7.22049 7.01812C7.20954 7.00721 6.04322 6.55978 6.03241 5.21815C6.0214 4.09479 6.9481 3.56046 6.99171 3.52732C6.4684 2.75333 5.65073 2.66606 5.36725 2.64414Z" fill="black"/>
<path d="M14.4213 3.81187C14.4213 5.41098 13.293 6.5111 11.6882 6.5111H9.93025V9.30669H8.66016V1.12402H11.728C13.3157 1.12402 14.4213 2.21846 14.4213 3.81187ZM11.3876 5.44499C12.4934 5.44499 13.1228 4.84965 13.1228 3.81756C13.1228 2.78558 12.4934 2.19582 11.3933 2.19582H9.93025V5.44499H11.3876ZM14.7532 7.61122C14.7532 6.56776 15.5527 5.92702 16.9705 5.84762L18.6035 5.75125V5.29198C18.6035 4.62849 18.1555 4.23156 17.4071 4.23156C16.6981 4.23156 16.2558 4.57172 16.1482 5.10483H14.9914C15.0594 4.02735 15.978 3.23349 17.4524 3.23349C18.8984 3.23349 19.8226 3.99902 19.8226 5.19551V9.30669H18.6488V8.32568H18.6205C18.2747 8.98917 17.5204 9.40874 16.7379 9.40874C15.5698 9.40874 14.7532 8.68291 14.7532 7.61122ZM18.6035 7.07254V6.60189L17.1347 6.69256C16.4032 6.74364 15.9893 7.06685 15.9893 7.57721C15.9893 8.09883 16.4203 8.4391 17.0781 8.4391C17.9343 8.4391 18.6035 7.84934 18.6035 7.07254ZM20.9308 11.5012V10.5089C21.0214 10.5315 21.2255 10.5315 21.3276 10.5315C21.8946 10.5315 22.2009 10.2934 22.3879 9.68098C22.3879 9.6696 22.4958 9.31806 22.4958 9.31238L20.341 3.34122H21.6678L23.1763 8.1953H23.1989L24.7074 3.34122H26.0003L23.7659 9.61853C23.2557 11.0646 22.666 11.5296 21.4298 11.5296C21.3276 11.5296 21.0214 11.5182 20.9308 11.5012Z" fill="black"/>
</svg>
