<svg width="22" height="17" viewBox="0 0 22 17" fill="none" xmlns="http://www.w3.org/2000/svg">
<path d="M16.5 9.6927H18.1077C18.1923 9.6927 18.2769 9.6927 18.2769 9.6927C18.6154 9.61193 18.8692 9.36962 18.8692 9.04654C18.8692 8.72347 18.6154 8.40039 18.2769 8.40039C18.1923 8.40039 18.1077 8.40039 18.1077 8.40039H16.5V9.6927Z" fill="url(#paint0_linear_146_4901)"/>
<path d="M17.9382 0C16.4997 0 15.2305 1.21154 15.2305 2.66538V5.41154H19.1228C19.2074 5.41154 19.292 5.41154 19.3766 5.41154C20.2228 5.49231 20.8997 5.89615 20.8997 6.62308C20.8997 7.18846 20.4766 7.75385 19.6305 7.83462C20.5612 7.91538 21.2382 8.4 21.2382 9.12692C21.2382 9.93462 20.4766 10.4192 19.4612 10.4192H15.2305V16.0731H19.292C20.8151 16.0731 21.9997 14.9423 21.9997 13.4885V0H17.9382Z" fill="url(#paint1_linear_146_4901)"/>
<path d="M18.7 6.8649C18.7 6.54183 18.4462 6.29952 18.1077 6.21875C18.1077 6.21875 18.0231 6.21875 17.9385 6.21875H16.5V7.51106H17.9385C18.0231 7.51106 18.1077 7.51106 18.1077 7.51106C18.4462 7.43029 18.7 7.18798 18.7 6.8649Z" fill="url(#paint2_linear_146_4901)"/>
<path d="M0 2.66538V9.20769C0.761538 9.53077 1.52308 9.77308 2.36923 9.77308C3.3 9.77308 3.80769 9.20769 3.80769 8.48077V5.41154H6.17692V8.48077C6.17692 9.69231 5.41538 10.6615 2.79231 10.6615C1.18462 10.6615 0 10.3385 0 10.3385V16.1538H4.06154C5.5 16.1538 6.76923 15.0231 6.76923 13.5692V0H2.70769C1.26923 0 0 1.21154 0 2.66538Z" fill="url(#paint3_linear_146_4901)"/>
<path d="M10.3229 0C8.88446 0 7.61523 1.21154 7.61523 2.66538V6.13846C8.29216 5.57308 9.47677 5.16923 11.5075 5.25C12.5229 5.33077 13.6229 5.57308 13.6229 5.57308V6.70385C13.0306 6.46154 12.4383 6.21923 11.5075 6.13846C9.98447 6.05769 9.13831 6.70385 9.13831 7.99615C9.13831 9.20769 10.0691 9.93462 11.5075 9.85385C12.3537 9.77308 13.0306 9.53077 13.6229 9.28846V10.4192C13.6229 10.4192 12.5229 10.6615 11.5075 10.7423C9.56139 10.8231 8.37677 10.5 7.61523 9.85385V16.1538H11.6768C13.1999 16.1538 14.3845 15.0231 14.3845 13.5692V0H10.3229Z" fill="url(#paint4_linear_146_4901)"/>
<defs>
<linearGradient id="paint0_linear_146_4901" x1="15.1945" y1="8.97018" x2="21.9857" y2="8.97018" gradientUnits="userSpaceOnUse">
<stop stop-color="#00763C"/>
<stop offset="0.2285" stop-color="#00843B"/>
<stop offset="0.7433" stop-color="#4DA534"/>
<stop offset="1" stop-color="#65B32E"/>
</linearGradient>
<linearGradient id="paint1_linear_146_4901" x1="15.2305" y1="8.07608" x2="22.0173" y2="8.07608" gradientUnits="userSpaceOnUse">
<stop stop-color="#00763C"/>
<stop offset="0.2285" stop-color="#00843B"/>
<stop offset="0.7433" stop-color="#4DA534"/>
<stop offset="1" stop-color="#65B32E"/>
</linearGradient>
<linearGradient id="paint2_linear_146_4901" x1="15.1947" y1="6.83735" x2="21.9856" y2="6.83735" gradientUnits="userSpaceOnUse">
<stop stop-color="#00763C"/>
<stop offset="0.2285" stop-color="#00843B"/>
<stop offset="0.7433" stop-color="#4DA534"/>
<stop offset="1" stop-color="#65B32E"/>
</linearGradient>
<linearGradient id="paint3_linear_146_4901" x1="-0.0088" y1="8.07612" x2="6.88295" y2="8.07612" gradientUnits="userSpaceOnUse">
<stop stop-color="#312B6B"/>
<stop offset="0.4751" stop-color="#004E90"/>
<stop offset="0.8261" stop-color="#0066AD"/>
<stop offset="1" stop-color="#006FB9"/>
</linearGradient>
<linearGradient id="paint4_linear_146_4901" x1="7.57462" y1="8.07612" x2="14.268" y2="8.07612" gradientUnits="userSpaceOnUse">
<stop stop-color="#6E2E2B"/>
<stop offset="0.1735" stop-color="#882A2D"/>
<stop offset="0.5731" stop-color="#BD1D32"/>
<stop offset="0.8585" stop-color="#DA0C38"/>
<stop offset="1" stop-color="#E4003A"/>
</linearGradient>
</defs>
</svg>
