<svg width="11" height="11" viewBox="0 0 11 11" fill="none" xmlns="http://www.w3.org/2000/svg">
<path fill-rule="evenodd" clip-rule="evenodd" d="M3.2168 4.07666C2.80258 4.07666 2.4668 4.41245 2.4668 4.82666V8.15486C2.4668 8.56907 2.80258 8.90486 3.2168 8.90486H7.78873C8.20294 8.90486 8.53873 8.56907 8.53873 8.15486V4.82666C8.53873 4.41245 8.20294 4.07666 7.78873 4.07666H3.2168ZM5.50307 7.24523C5.92225 7.24523 6.26206 6.90747 6.26206 6.49083C6.26206 6.07418 5.92225 5.73642 5.50307 5.73642C5.08389 5.73642 4.74408 6.07418 4.74408 6.49083C4.74408 6.90747 5.08389 7.24523 5.50307 7.24523Z" fill="#707070"/>
<path d="M3.90918 4.07669V3.47317C3.90918 2.97023 4.17483 1.96436 5.50306 1.96436" stroke="#707070"/>
<path d="M7.09668 4.07669V3.47317C7.09668 2.97023 6.83103 1.96436 5.5028 1.96436" stroke="#707070"/>
</svg>
