<svg width="49" height="48" viewBox="0 0 49 48" fill="none" xmlns="http://www.w3.org/2000/svg">
<path fill-rule="evenodd" clip-rule="evenodd" d="M17.6748 19.8594C16.5702 19.8594 15.6748 20.7548 15.6748 21.8594V31.905C15.6748 33.0096 16.5702 33.905 17.6748 33.905H31.3386C32.4432 33.905 33.3386 33.0096 33.3386 31.905V21.8594C33.3386 20.7548 32.4432 19.8594 31.3386 19.8594H17.6748ZM24.5076 29.077C25.727 29.077 26.7156 28.0945 26.7156 26.8824C26.7156 25.6703 25.727 24.6878 24.5076 24.6878C23.2882 24.6878 22.2996 25.6703 22.2996 26.8824C22.2996 28.0945 23.2882 29.077 24.5076 29.077Z" fill="black"/>
<path d="M19.8701 19.8593V18.1036C19.8701 16.6405 20.6429 13.7144 24.5069 13.7144" stroke="black" stroke-width="2" stroke-linecap="round"/>
<path d="M29.1445 22.8593V18.1036C29.1445 16.6405 28.3717 13.7144 24.5078 13.7144" stroke="black" stroke-width="2"/>
<circle cx="24.5" cy="24" r="23" stroke="black" stroke-width="2"/>
</svg>
