<svg width="24" height="25" viewBox="0 0 24 25" fill="none" xmlns="http://www.w3.org/2000/svg">
<path fill-rule="evenodd" clip-rule="evenodd" d="M6.13086 9.39453C5.71665 9.39453 5.38086 9.73032 5.38086 10.1445V19.1788C5.38086 19.593 5.71665 19.9288 6.13086 19.9288H17.8787C18.2929 19.9288 18.6287 19.593 18.6287 19.1788V10.1445C18.6287 9.73032 18.2929 9.39453 17.8787 9.39453H6.13086ZM12.0056 16.3083C12.9202 16.3083 13.6616 15.5713 13.6616 14.6623C13.6616 13.7532 12.9202 13.0163 12.0056 13.0163C11.091 13.0163 10.3496 13.7532 10.3496 14.6623C10.3496 15.5713 11.091 16.3083 12.0056 16.3083Z" fill="#707070"/>
<path d="M8.52832 9.39487V8.07809C8.52832 6.98077 9.10791 4.78613 12.0059 4.78613" stroke="#707070" stroke-width="2"/>
<path d="M15.4844 9.39487V8.07809C15.4844 6.98077 14.9048 4.78613 12.0068 4.78613" stroke="#707070" stroke-width="2"/>
</svg>
