<svg xmlns="http://www.w3.org/2000/svg" xmlns:xlink="http://www.w3.org/1999/xlink" viewBox="0 0 2000 2000"><defs><style>.cls-1{isolation:isolate;}.cls-2{fill:#1d1d1b;}.cls-3{fill:#fff;}.cls-4{fill:url(#Безымянный_градиент_18);}.cls-5{fill:url(#Безымянный_градиент_18-2);}.cls-6{fill:url(#Безымянный_градиент_18-3);}.cls-7{fill:url(#Безымянный_градиент_18-4);}.cls-8{fill:url(#Безымянный_градиент_18-5);}.cls-9{fill:url(#Безымянный_градиент_18-6);}.cls-10{fill:url(#Безымянный_градиент_18-7);}.cls-11{fill:url(#Безымянный_градиент_18-8);}.cls-12{fill:url(#Безымянный_градиент_18-9);}.cls-13{fill:url(#Безымянный_градиент_18-10);}.cls-14{fill:url(#Безымянный_градиент_18-11);}.cls-15{fill:url(#Безымянный_градиент_18-12);}.cls-16{fill:url(#Безымянный_градиент_18-13);}.cls-17{opacity:0.79;fill:url(#Безымянный_градиент_35);}.cls-17,.cls-18{mix-blend-mode:color-dodge;}.cls-18{opacity:0.63;fill:url(#Безымянный_градиент_30);}</style><linearGradient id="Безымянный_градиент_18" x1="488.01" y1="1126.71" x2="1509.4" y2="1126.71" gradientUnits="userSpaceOnUse"><stop offset="0" stop-color="#b1862a"/><stop offset="0.14" stop-color="#cbad4e"/><stop offset="0.29" stop-color="#e3d16f"/><stop offset="0.41" stop-color="#f2e783"/><stop offset="0.49" stop-color="#f7ef8a"/><stop offset="0.62" stop-color="#f0e37e"/><stop offset="0.85" stop-color="#dec25d"/><stop offset="1" stop-color="#d0aa45"/></linearGradient><linearGradient id="Безымянный_градиент_18-2" x1="744.82" y1="1625.5" x2="744.82" y2="550.16" xlink:href="#Безымянный_градиент_18"/><linearGradient id="Безымянный_градиент_18-3" x1="998.7" y1="1709.96" x2="998.7" y2="550.16" xlink:href="#Безымянный_градиент_18"/><linearGradient id="Безымянный_градиент_18-4" x1="1252.59" y1="1625.5" x2="1252.59" y2="550.16" xlink:href="#Безымянный_градиент_18"/><linearGradient id="Безымянный_градиент_18-5" x1="493.02" y1="1166.16" x2="493.02" y2="891.95" xlink:href="#Безымянный_градиент_18"/><linearGradient id="Безымянный_градиент_18-6" x1="615.28" y1="1166.16" x2="615.28" y2="891.95" xlink:href="#Безымянный_градиент_18"/><linearGradient id="Безымянный_градиент_18-7" x1="737.53" y1="1166.16" x2="737.53" y2="891.95" xlink:href="#Безымянный_градиент_18"/><linearGradient id="Безымянный_градиент_18-8" x1="870.85" y1="1166.16" x2="870.85" y2="891.95" xlink:href="#Безымянный_градиент_18"/><linearGradient id="Безымянный_градиент_18-9" x1="1004.16" y1="1166.16" x2="1004.16" y2="891.95" xlink:href="#Безымянный_градиент_18"/><linearGradient id="Безымянный_градиент_18-10" x1="1137.48" y1="1166.16" x2="1137.48" y2="891.95" xlink:href="#Безымянный_градиент_18"/><linearGradient id="Безымянный_градиент_18-11" x1="1270.8" y1="1166.16" x2="1270.8" y2="891.95" xlink:href="#Безымянный_градиент_18"/><linearGradient id="Безымянный_градиент_18-12" x1="1404.12" y1="1166.16" x2="1404.12" y2="891.95" xlink:href="#Безымянный_градиент_18"/><linearGradient id="Безымянный_градиент_18-13" x1="1537.44" y1="1166.16" x2="1537.44" y2="891.95" xlink:href="#Безымянный_градиент_18"/><radialGradient id="Безымянный_градиент_35" cx="456.54" cy="919.56" r="134.99" gradientUnits="userSpaceOnUse"><stop offset="0" stop-color="#f7efc0"/><stop offset="0.5" stop-color="#95917a" stop-opacity="0.47"/><stop offset="0.84" stop-color="#55544d" stop-opacity="0.13"/><stop offset="1" stop-color="#3c3c3b" stop-opacity="0"/></radialGradient><radialGradient id="Безымянный_градиент_30" cx="1537.44" cy="1048.64" r="202.02" gradientUnits="userSpaceOnUse"><stop offset="0" stop-color="#f7efc0"/><stop offset="0.5" stop-color="#95917a" stop-opacity="0.47"/><stop offset="0.84" stop-color="#55544d" stop-opacity="0.13"/><stop offset="1" stop-color="#3c3c3b" stop-opacity="0"/></radialGradient></defs><title>лого_гарант_свг</title><g class="cls-1"><g id="Слой_1" data-name="Слой 1"><polygon class="cls-2" points="530.39 1387.07 83.89 1387.07 253.22 1259.81 83.89 1132.54 530.39 1132.54 530.39 1387.07"/><path class="cls-3" d="M536.22,1392.9H66.43l177.08-133.1L66.43,1126.71H536.22Zm-434.87-11.66H524.56V1138.37H101.35L262.92,1259.8Z"/><polygon class="cls-2" points="308.22 1221.36 530.15 1386.36 530.15 1165.23 308.22 1221.36"/><path class="cls-3" d="M530.15,1392.19a5.84,5.84,0,0,1-3.48-1.16L304.74,1226a5.84,5.84,0,0,1,2.05-10.33l221.93-56.13a5.82,5.82,0,0,1,7.25,5.65v221.13a5.82,5.82,0,0,1-3.21,5.2A5.74,5.74,0,0,1,530.15,1392.19ZM321.55,1224l202.77,150.75v-202Z"/><polygon class="cls-2" points="1488.59 1387.07 1935.09 1387.07 1765.77 1259.8 1935.09 1132.54 1488.59 1132.54 1488.59 1387.07"/><path class="cls-3" d="M1482.76,1392.9h469.79l-177.08-133.1,177.08-133.09H1482.76Zm434.88-11.66H1494.42V1138.37h423.22L1756.06,1259.8Z"/><polygon class="cls-2" points="1707.01 1221.36 1485.09 1386.35 1485.09 1165.23 1707.01 1221.36"/><path class="cls-3" d="M1485.09,1392.18a5.86,5.86,0,0,0,3.48-1.15l221.92-165a5.83,5.83,0,0,0-2-10.33l-221.92-56.13a5.83,5.83,0,0,0-7.26,5.65v221.12a5.83,5.83,0,0,0,5.83,5.83ZM1693.69,1224l-202.77,150.75v-202Z"/><path class="cls-4" d="M1509.21,1310.83V467.51H488.2v843.32s-25.39,291.75,510.5,475.08C1534.59,1602.58,1509.21,1310.83,1509.21,1310.83Z"/><path class="cls-2" d="M1509.21,467.51v843.32s25.38,291.75-510.51,475.08c-535.89-183.33-510.5-475.08-510.5-475.08V467.51h1021m13.32-13.32H474.87v856.14c-.56,8.2-3.62,81.59,56.36,176.41,36.11,57.08,87.85,110.36,153.79,158.36,81.79,59.55,185.87,111.16,309.37,153.41l4.31,1.48,4.32-1.48c123.49-42.25,227.58-93.86,309.37-153.41,65.93-48,117.67-101.28,153.78-158.36,60-94.82,56.92-168.21,56.36-176.41V454.19Z"/><path class="cls-2" d="M1476.94,509.17v790s23.79,273.31-478.24,445.05c-502-171.74-478.24-445-478.24-445v-790h956.48m12.49-12.48H508v802c-.52,7.66-3.41,76.42,52.8,165.26,33.83,53.47,82.3,103.38,144.06,148.35,76.62,55.78,174.13,104.14,289.82,143.72l4,1.38,4-1.38c115.7-39.58,213.21-87.94,289.83-143.72,61.76-45,110.23-94.88,144.06-148.35,56.2-88.84,53.32-157.6,52.8-165.26v-802Z"/><path class="cls-2" d="M1062.18,550.16V1686.25c48.13-19.4,90.18-39.83,126.94-60.75V550.16Z"/><path class="cls-2" d="M552.21,550.16V1292S542,1409,681.35,1534.56V550.16Z"/><path class="cls-2" d="M808.29,550.16V1625.5c36.75,20.92,78.81,41.35,126.94,60.75V550.16Z"/><path class="cls-2" d="M1442.84,1292V550.16H1316.06v984.4C1452.89,1409,1442.84,1292,1442.84,1292Z"/><path class="cls-5" d="M681.35,550.16v984.4c33,30.31,74.6,61.13,126.94,90.94V550.16Z"/><path class="cls-6" d="M998.7,550.16H935.23V1686.25q30.13,12.13,63.47,23.71,33.39-11.55,63.48-23.71V550.16Z"/><path class="cls-7" d="M1189.12,550.16V1625.5c52.34-29.81,93.92-60.62,126.94-90.94V550.16Z"/><path class="cls-2" d="M1445.2,550.16v737.58s22.2,255.17-446.5,415.51C530,1542.91,552.21,1287.74,552.21,1287.74V550.16h893m12.44-12.44H539.77v749.56c-.5,7.39-3.09,71.74,49.41,154.74,31.64,50,77,96.68,134.71,138.72,71.59,52.13,162.7,97.3,270.79,134.28l4,1.38,4-1.38c108.09-37,199.19-82.15,270.79-134.28,57.75-42,103.07-88.71,134.7-138.72,52.51-83,49.92-147.34,49.42-154.73V537.72Z"/><circle class="cls-3" cx="992.46" cy="597.98" r="382.39"/><path class="cls-2" d="M992.9,982.9c-115.81,0-230.37-51.89-306.09-150.7C557.65,663.66,589.7,421.47,758.24,292.32A385.08,385.08,0,1,1,992.9,982.9Zm-301.84-154c127.36,166.19,366.17,197.78,532.36,70.43A379.71,379.71,0,1,0,761.5,296.58C595.31,423.93,563.71,662.75,691.06,828.94Z"/><path class="cls-2" d="M1112.67,611.7l-172.25,4.74a1234.48,1234.48,0,0,1-61-160.15c34.18-35.09,79.72-68.76,132.29-101.56,47.92,20.64,96.78,52.94,146.08,90.6C1146.53,509.31,1132.31,566.6,1112.67,611.7Z"/><path class="cls-2" d="M855,758.29,710.43,737.46s-1.59,78.44,6,100.22c0,0,91.9,84.46,137.5,88.78,0,0,75.88-34.42,80.68-46.73C934.65,879.73,863.23,782.59,855,758.29Z"/><path class="cls-2" d="M662.75,404.09s42.37-47.42,66.09-58.12c0,0-2.64,66.74,8.36,96.86,0,0-62.39,82.61-80.91,142.53,0,0-25.9-9.46-43.56-32.47C612.73,552.89,624.87,461.86,662.75,404.09Z"/><path class="cls-2" d="M1311.1,713.36s-82.29,23.8-114.45,26.87c0,0-56.05,104.22-92.74,139.67,0,0,48.87,47.51,81.13,48.48,0,0,53.9-28.15,114.56-102.45C1299.6,825.93,1333.07,770.74,1311.1,713.36Z"/><path class="cls-2" d="M1254.84,319.72s22,69.12,18.4,111.14c0,0,51.66,54.47,76.77,130.58,0,0,18.75-16.39,17.59-38,0,0-13.23-66.22-38.22-106.45S1300.09,362.59,1254.84,319.72Z"/><path class="cls-2" d="M1115.67,235.94s-79.23,1.88-117.41,19.06c0,0-78.55-23.32-157.74-8,0,0,49.89-27.24,133.39-31S1115.67,235.94,1115.67,235.94Z"/><path class="cls-2" d="M942.85,612.85c-7.72,12.56-15.64,24.93-23.57,37.29s-15.84,24.71-23.64,37.13l-5.86,9.29L884,705.93c-2,3.09-3.85,6.23-5.71,9.38s-3.82,6.25-5.6,9.44l-5.48,9.52L862,743.92c-1.73,3.23-3.23,6.55-4.91,9.82-.88,1.62-1.44,3.36-2.18,5l-2.17,5.08c1-3.53,1.78-7.17,3-10.67s2.51-7,3.9-10.38l4.48-10.15c1.6-3.33,3.29-6.61,4.93-9.92,6.77-13.12,14.23-25.86,22.07-38.33s16.1-24.68,24.72-36.61S933.33,624.11,942.85,612.85Z"/><path class="cls-2" d="M882.9,456.62c-12.65-.08-25.25-.69-37.83-1.48s-25.15-1.84-37.7-3l-18.8-1.93c-6.26-.74-12.53-1.38-18.78-2.22-12.51-1.58-25-3.35-37.44-5.65,12.65.08,25.26.68,37.84,1.48,6.29.34,12.57.89,18.86,1.34l18.83,1.64c12.54,1.24,25.08,2.54,37.58,4.15S870.46,454.33,882.9,456.62Z"/><path class="cls-2" d="M655.09,579.67q5.55,20.7,11.41,41.17l3,10.22c1,3.41,2,6.82,3.1,10.19s2,6.8,3.17,10.16l3.32,10.11c2.31,6.7,4.51,13.44,7.07,20.05,1.26,3.31,2.35,6.69,3.74,9.95s2.65,6.57,3.93,9.87a417,417,0,0,0,18.39,38.42C703.48,728.5,696.31,716,690,703.1a370.64,370.64,0,0,1-16-39.88c-4.48-13.61-8.36-27.39-11.55-41.33A361.94,361.94,0,0,1,655.09,579.67Z"/><path class="cls-2" d="M1199.12,745l-21.43-35.07c-3.6-5.81-7.1-11.68-10.75-17.46s-7.19-11.61-10.86-17.36-7.28-11.54-11.09-17.2c-1.88-2.85-3.69-5.75-5.62-8.55s-3.85-5.63-5.73-8.48c-7.77-11.22-15.75-22.27-24.17-33.14A257.93,257.93,0,0,1,1137,638.38c8.44,10.87,16.16,22.26,23.59,33.82s14.25,23.5,20.7,35.62S1193.87,732.25,1199.12,745Z"/><path class="cls-2" d="M1108.36,879.51a344.21,344.21,0,0,1-44.17,8.12,442.24,442.24,0,0,1-44.86,3.17,365.36,365.36,0,0,1-45-2.12,232.18,232.18,0,0,1-44-9.43c14.78,2.46,29.51,4.26,44.33,5.26l11.12.53c1.86.08,3.71.2,5.56.26l5.57.07c3.71,0,7.41.23,11.13.17l11.13-.1c14.85-.23,29.7-1,44.55-2S1093.48,881.1,1108.36,879.51Z"/><path class="cls-2" d="M1351.22,555.33c-.59,14-2.15,28-4.13,41.92-.94,7-2.19,13.88-3.39,20.8s-2.69,13.8-4.27,20.65-3.38,13.66-5.18,20.47c-2.09,6.73-4,13.52-6.46,20.12-1.19,3.32-2.32,6.65-3.76,9.89s-2.64,6.53-4.23,9.7-3.15,6.31-4.84,9.4c-1.86,3-3.76,6-5.67,8.91,6.23-12.6,10.5-25.88,14.52-39.2s7.35-26.87,10.39-40.49,6-27.26,8.78-41Z"/><path class="cls-2" d="M1276.59,430.45l-30.31,4.48L1216,439.2c-10.11,1.3-20.21,2.69-30.35,3.81-5.07.62-10.15,1.14-15.24,1.65s-10.18,1-15.32,1.23c9.88-2.81,19.87-5.05,29.91-7,5-1,10.07-1.84,15.11-2.72s10.11-1.56,15.17-2.26,10.16-1.27,15.25-1.82,10.18-1,15.3-1.29A227,227,0,0,1,1276.59,430.45Z"/><path class="cls-2" d="M997.22,249.9a222.84,222.84,0,0,1,8,26.28c1.16,4.43,2,8.92,3,13.4s1.66,9,2.39,13.53a239.07,239.07,0,0,1,2.68,27.4c.29,9.17.08,18.46-1.72,27.49-.43-9.18-1.39-18.16-2.45-27.16-.32-2.25-.58-4.49-.86-6.74l-.95-6.73c-.65-4.48-1.24-9-2-13.45-1.3-9-2.83-17.92-4.2-26.92S998.35,259,997.22,249.9Z"/><path class="cls-2" d="M992.18,215.56c114.89,0,228.52,51.58,303.8,149.82C1424.44,533,1392.68,773,1225.05,901.5a380.71,380.71,0,0,1-232.31,78.89c-114.9,0-228.52-51.58-303.81-149.82-128.45-167.63-96.69-407.66,70.94-536.12a380.71,380.71,0,0,1,232.31-78.89m0-15.55a398,398,0,0,0-173,756.31,401.63,401.63,0,0,0,173.52,39.62,398,398,0,0,0,173-756.31A401.55,401.55,0,0,0,992.18,200Z"/><polygon class="cls-2" points="998.7 1534.56 1017.7 1573.05 1060.17 1579.22 1029.43 1609.17 1036.69 1651.47 998.7 1631.5 960.72 1651.47 967.97 1609.17 937.24 1579.22 979.71 1573.05 998.7 1534.56"/><polygon class="cls-2" points="1254.22 1387.01 1273.22 1425.49 1315.69 1431.66 1284.95 1461.62 1292.21 1503.92 1254.22 1483.95 1216.24 1503.92 1223.49 1461.62 1192.76 1431.66 1235.23 1425.49 1254.22 1387.01"/><polygon class="cls-2" points="744.82 1387.01 763.81 1425.49 806.28 1431.66 775.55 1461.62 782.8 1503.92 744.82 1483.95 706.83 1503.92 714.09 1461.62 683.36 1431.66 725.82 1425.49 744.82 1387.01"/><rect class="cls-2" x="308.22" y="845.16" width="1397.78" height="368.8"/><path class="cls-3" d="M1711.83,1219.79H302.39V839.34H1711.83ZM314.05,1208.13H1700.17V851H314.05Z"/><path class="cls-8" d="M542.82,1074.76V1127q0,39.16-33.2,39.17H443.23V892h66.39q33.2,0,33.2,39.18v52.23q0,39.17-22.13,45.44Q542.82,1035.58,542.82,1074.76Zm-33.2-78.35V944.18q0-13-11.06-13H476.42v78.34h22.14Q509.62,1009.47,509.62,996.41Zm0,117.52V1061.7q0-13-11.06-13.06H476.42V1127h22.14Q509.62,1127,509.62,1113.93Z"/><path class="cls-9" d="M654,892v39.18H609.74v78.34H654v39.17H609.74V1127H654v39.17H576.55V892Z"/><path class="cls-10" d="M754.13,931.13v235h-33.2v-235h-33.2V892h99.59v39.18Z"/><path class="cls-11" d="M887.44,892q33.21,0,33.2,39.18v26.11h-33.2V944.18q0-13-11.06-13H865.31q-11.05,0-11.06,13v169.75q0,13,11.06,13.06h11.07q11.05,0,11.06-13.06v-65.29H876.38v-39.17h44.26V1127q0,39.16-33.2,39.17H854.25q-33.19,0-33.2-39.17V931.13q0-39.18,33.2-39.18Z"/><path class="cls-12" d="M990.44,1127l-2.88,39.17H954.37L976.5,892h55.33L1054,1166.16h-33.2l-2.88-39.17Zm24.68-39.17-11-150.16-10.95,150.16Z"/><path class="cls-13" d="M1120.88,1048.64v117.52h-33.19V892h66.39q33.2,0,33.2,39.18v78.34q0,37.35-30.54,39l30.54,117.65h-33.2Zm0-117.51v78.34H1143q11.07,0,11.07-13.06V944.18q0-13-11.07-13Z"/><path class="cls-14" d="M1257.08,1127l-2.88,39.17H1221L1243.14,892h55.32l22.13,274.21H1287.4l-2.88-39.17Zm24.67-39.17-11-150.16-11,150.16Z"/><path class="cls-15" d="M1387.52,1009.47v156.69h-33.2V892h33.2l33.2,156.69V892h33.19v274.21h-33.19Z"/><path class="cls-16" d="M1554,931.13v235h-33.19v-235h-33.2V892h99.59v39.18Z"/><circle class="cls-17" cx="456.54" cy="919.56" r="134.99"/><circle class="cls-18" cx="1537.44" cy="1048.64" r="202.02"/></g></g></svg>