<svg width="14" height="13" viewBox="0 0 14 13" fill="none" xmlns="http://www.w3.org/2000/svg">
<path d="M7.66634 10.667C7.66634 8.46033 9.45967 6.66699 11.6663 6.66699C12.3997 6.66699 13.0797 6.86699 13.6663 7.20699V2.00033C13.6663 1.26033 13.0663 0.666992 12.333 0.666992H1.66634C0.926341 0.666992 0.333008 1.26033 0.333008 2.00033V10.0003C0.333008 10.7403 0.933008 11.3337 1.66634 11.3337H7.72634C7.69301 11.1137 7.66634 10.8937 7.66634 10.667ZM1.66634 3.33366V2.00033L6.99967 5.33366L12.333 2.00033V3.33366L6.99967 6.66699L1.66634 3.33366ZM10.833 12.7737L8.99967 10.7737L9.77301 10.0003L10.833 11.0603L13.2263 8.66699L13.9997 9.60699L10.833 12.7737Z" fill="#009E06"/>
</svg>
