<svg width="24" height="14" viewBox="0 0 24 14" fill="none" xmlns="http://www.w3.org/2000/svg">
<path fill-rule="evenodd" clip-rule="evenodd" d="M8.93652 12.5023H15.0611V1.49609H8.93652V12.5023Z" fill="#FF5F00"/>
<path fill-rule="evenodd" clip-rule="evenodd" d="M9.32634 7.00043C9.3252 5.94024 9.56539 4.8937 10.0287 3.94012C10.492 2.98653 11.1663 2.15091 12.0005 1.49657C8.95998 -0.892118 4.55985 -0.364756 2.17194 2.67419C-0.217522 5.71469 0.30984 10.1148 3.34956 12.5027C4.58301 13.472 6.10628 13.999 7.67502 13.999C9.24376 13.999 10.767 13.472 12.0005 12.5027C11.1666 11.8485 10.4924 11.0131 10.0291 10.0598C9.56582 9.10655 9.32549 8.06034 9.32634 7.00043Z" fill="#EB001B"/>
<path fill-rule="evenodd" clip-rule="evenodd" d="M23.3251 7.0003C23.3252 8.31373 22.9558 9.60069 22.259 10.714C21.5622 11.8274 20.5661 12.7222 19.3848 13.2962C18.2034 13.8702 16.8843 14.1001 15.5784 13.9598C14.2725 13.8195 13.0324 13.3145 12 12.5026C15.0397 10.1147 15.5663 5.71456 13.1784 2.67406C12.8338 2.23604 12.4382 1.8407 12 1.49644C13.0325 0.684875 14.2726 0.180164 15.5784 0.039989C16.8842 -0.100186 18.2031 0.129829 19.3843 0.703747C20.5656 1.27767 21.5616 2.17233 22.2584 3.2855C22.9553 4.39867 23.3249 5.68544 23.3251 6.99874V7.0003Z" fill="#F79E1B"/>
</svg>
