<svg width="12" height="13" viewBox="0 0 12 13" fill="none" xmlns="http://www.w3.org/2000/svg">
<path fill-rule="evenodd" clip-rule="evenodd" d="M6.43737 4.3124C6.43737 4.07078 6.24153 3.87493 5.9999 3.87493C5.75826 3.87493 5.56242 4.07078 5.56242 4.3124V6.93738C5.56242 7.05346 5.60849 7.16472 5.69052 7.24675L7.00302 8.55923C7.1739 8.73011 7.45091 8.73011 7.62177 8.55923C7.79264 8.38836 7.79265 8.11136 7.62177 7.94057L6.43737 6.75618V4.3124ZM9.09331 9.59329C8.26708 10.4197 7.16825 10.8748 5.99993 10.8748C4.83136 10.8748 3.73268 10.4197 2.90655 9.59329C2.08016 8.76706 1.62503 7.66843 1.62503 6.49994C1.62503 5.33153 2.08015 4.23291 2.90655 3.4066C3.73279 2.58022 4.83143 2.12509 5.99993 2.12509C7.16836 2.12509 8.26719 2.5802 9.09331 3.4066C9.9197 4.23298 10.3748 5.33164 10.3748 6.49994C10.3748 7.66851 9.91972 8.76717 9.09331 9.59329ZM5.99993 1.25C4.59749 1.25 3.2793 1.79616 2.2878 2.78791C1.29617 3.77931 0.75 5.0977 0.75 6.5C0.75 7.9023 1.29617 9.2206 2.2878 10.2121C3.27936 11.2039 4.59762 11.75 5.99993 11.75C7.40216 11.75 8.72038 11.2038 9.71206 10.2121C10.7038 9.22069 11.25 7.9023 11.25 6.5C11.25 5.0977 10.7038 3.7794 9.7122 2.78791C8.72049 1.79614 7.40219 1.25 6.00007 1.25L5.99993 1.25Z" fill="white" stroke="white" stroke-width="0.25"/>
</svg>
