<svg width="12" height="15" viewBox="0 0 12 15" fill="none" xmlns="http://www.w3.org/2000/svg">
<path fill-rule="evenodd" clip-rule="evenodd" d="M3.387 13.7057L3.62329 12.1303H0.472656L2.28427 0.630524C2.28427 0.630524 2.28427 0.551758 2.36304 0.551758H6.85269C8.34925 0.551758 9.29444 0.866822 9.8458 1.41818C10.0821 1.73325 10.2396 1.96954 10.3184 2.28461C10.3972 2.59967 10.3972 2.9935 10.3184 3.54486V3.85993L10.5547 4.01746C10.791 4.09622 10.9485 4.25376 11.0273 4.41129C11.2636 4.64758 11.3424 4.96265 11.4211 5.35648C11.4999 5.75031 11.4211 6.14414 11.3424 6.6955C11.2636 7.24686 11.0273 7.79822 10.791 8.19205C10.5547 8.58588 10.2396 8.90094 9.92456 9.13724C9.6095 9.37354 9.21567 9.53107 8.74308 9.6886C8.34925 9.76737 7.79789 9.84613 7.32529 9.84613H7.08899C6.85269 9.84613 6.6164 9.9249 6.3801 10.0824C6.22257 10.24 6.06504 10.4763 6.06504 10.7126V10.8701L5.59244 13.6269V13.7844H3.387V13.7057Z" fill="#253B80"/>
<path fill-rule="evenodd" clip-rule="evenodd" d="M10.7906 3.62305C10.7906 3.70181 10.7906 3.78058 10.7119 3.85934C10.1605 6.85245 8.19136 7.87641 5.67085 7.87641H4.33183C4.01677 7.87641 3.78047 8.1127 3.7017 8.42777L3.07157 12.6024L2.91404 13.7838C2.83528 14.0201 2.99281 14.1777 3.22911 14.1777H5.51332C5.74962 14.1777 5.98591 14.0201 6.06468 13.7051V13.6263L6.45851 10.8695V10.712C6.61604 10.4757 6.77357 10.2394 7.08864 10.2394H7.4037C9.60914 10.2394 11.342 9.37296 11.8934 6.69492C12.1297 5.59219 11.9721 4.72577 11.4208 4.01688C11.2632 3.85934 11.0269 3.70181 10.7906 3.62305Z" fill="#179BD7"/>
<path fill-rule="evenodd" clip-rule="evenodd" d="M10.1613 3.38669C10.0825 3.38669 10.0038 3.30792 9.92499 3.30792C9.84622 3.30792 9.76746 3.22916 9.60993 3.22916C9.29486 3.15039 8.90103 3.15039 8.5072 3.15039H5.0415C4.96274 3.15039 4.88397 3.15039 4.80521 3.22916C4.64767 3.30792 4.49014 3.46545 4.49014 3.62299L3.78125 8.27017V8.42771C3.78125 8.11264 4.01755 7.87635 4.33261 7.87635H5.59287C8.11337 7.87635 10.0825 6.85239 10.7126 3.85928C10.7126 3.78052 10.7126 3.70175 10.7914 3.62299L10.3188 3.38669H10.1613Z" fill="#222D65"/>
<path fill-rule="evenodd" clip-rule="evenodd" d="M4.48966 3.62323C4.48966 3.4657 4.64719 3.30817 4.80472 3.2294C4.88349 3.15064 4.96225 3.15064 5.04102 3.15064H8.50672C8.90055 3.15064 9.29438 3.15064 9.60944 3.2294C9.68821 3.2294 9.76697 3.2294 9.9245 3.30817C10.0033 3.30817 10.082 3.38693 10.1608 3.38693C10.2396 3.38693 10.2396 3.38693 10.3183 3.4657L10.7909 3.702C10.9485 2.59927 10.7909 1.81162 10.1608 1.18149C9.53067 0.315064 8.34919 0 6.85263 0H2.44174C2.12668 0 1.89038 0.236298 1.81162 0.551361L0 12.2087C0 12.445 0.157532 12.6813 0.39383 12.6813H3.15064L3.85953 8.34919L4.48966 3.62323Z" fill="#253B80"/>
</svg>
