<svg width="11" height="10" viewBox="0 0 11 10" fill="none" xmlns="http://www.w3.org/2000/svg">
<path fill-rule="evenodd" clip-rule="evenodd" d="M9.96128 9.62759C9.7603 9.82857 9.43444 9.82857 9.23345 9.62759L6.29708 6.69121C6.0961 6.49022 6.0961 6.16436 6.29708 5.96338C6.49806 5.76239 6.82392 5.76239 7.02491 5.96338L9.96128 8.89976C10.1623 9.10074 10.1623 9.4266 9.96128 9.62759Z" fill="#7A7A7A"/>
<path fill-rule="evenodd" clip-rule="evenodd" d="M4.00445 6.31163C5.46313 6.31163 6.64562 5.12914 6.64562 3.67047C6.64562 2.2118 5.46313 1.02931 4.00445 1.02931C2.54578 1.02931 1.36329 2.2118 1.36329 3.67047C1.36329 5.12914 2.54578 6.31163 4.00445 6.31163ZM4.00445 7.34094C6.0316 7.34094 7.67492 5.69761 7.67492 3.67047C7.67492 1.64333 6.0316 0 4.00445 0C1.97731 0 0.333984 1.64333 0.333984 3.67047C0.333984 5.69761 1.97731 7.34094 4.00445 7.34094Z" fill="#7A7A7A"/>
</svg>
