<svg width="12" height="16" viewBox="0 0 12 16" fill="none" xmlns="http://www.w3.org/2000/svg">
<path d="M6 0.666992L0 3.33366V7.33366C0 11.0337 2.56 14.4937 6 15.3337C9.44 14.4937 12 11.0337 12 7.33366V3.33366L6 0.666992ZM6 2.12033L10.6667 4.20033V7.48033C10.6667 8.61366 10.3333 9.76699 9.76667 10.7803C8.66667 9.96033 6.84 9.66699 6 9.66699C5.16 9.66699 3.33333 9.96033 2.23333 10.7803C1.66667 9.76699 1.33333 8.61366 1.33333 7.48033V4.20033L6 2.12033ZM6 4.00033C5.38116 4.00033 4.78767 4.24616 4.35008 4.68374C3.9125 5.12133 3.66667 5.71482 3.66667 6.33366C3.66667 6.9525 3.9125 7.54599 4.35008 7.98357C4.78767 8.42116 5.38116 8.66699 6 8.66699C6.61884 8.66699 7.21233 8.42116 7.64992 7.98357C8.0875 7.54599 8.33333 6.9525 8.33333 6.33366C8.33333 5.71482 8.0875 5.12133 7.64992 4.68374C7.21233 4.24616 6.61884 4.00033 6 4.00033ZM6 5.33366C6.26522 5.33366 6.51957 5.43902 6.70711 5.62655C6.89464 5.81409 7 6.06844 7 6.33366C7 6.59888 6.89464 6.85323 6.70711 7.04077C6.51957 7.2283 6.26522 7.33366 6 7.33366C5.73478 7.33366 5.48043 7.2283 5.29289 7.04077C5.10536 6.85323 5 6.59888 5 6.33366C5 6.06844 5.10536 5.81409 5.29289 5.62655C5.48043 5.43902 5.73478 5.33366 6 5.33366ZM6 11.0003C7.04667 11.0003 8.42667 11.407 9.02 11.8937C8.19333 12.9203 7.13333 13.7003 6 14.0003C4.86667 13.7003 3.80667 12.9203 2.98 11.8937C3.58 11.407 4.95333 11.0003 6 11.0003Z" fill="black"/>
</svg>
