<svg width="14" height="14" viewBox="0 0 14 14" fill="none" xmlns="http://www.w3.org/2000/svg">
<path d="M6.99989 4.33301C7.70714 4.33301 8.38541 4.61396 8.88551 5.11406C9.38561 5.61415 9.66656 6.29243 9.66656 6.99967C9.66656 7.70692 9.38561 8.3852 8.88551 8.88529C8.38541 9.38539 7.70714 9.66634 6.99989 9.66634C6.29265 9.66634 5.61437 9.38539 5.11427 8.88529C4.61418 8.3852 4.33323 7.70692 4.33323 6.99967C4.33323 6.29243 4.61418 5.61415 5.11427 5.11406C5.61437 4.61396 6.29265 4.33301 6.99989 4.33301ZM6.99989 5.66634C6.64627 5.66634 6.30713 5.80682 6.05708 6.05687C5.80704 6.30691 5.66656 6.64605 5.66656 6.99967C5.66656 7.3533 5.80704 7.69243 6.05708 7.94248C6.30713 8.19253 6.64627 8.33301 6.99989 8.33301C7.35352 8.33301 7.69265 8.19253 7.9427 7.94248C8.19275 7.69243 8.33323 7.3533 8.33323 6.99967C8.33323 6.64605 8.19275 6.30691 7.9427 6.05687C7.69265 5.80682 7.35352 5.66634 6.99989 5.66634ZM5.66656 13.6663C5.49989 13.6663 5.35989 13.5463 5.33323 13.3863L5.08656 11.6197C4.66656 11.453 4.30656 11.2263 3.95989 10.9597L2.29989 11.633C2.15323 11.6863 1.97323 11.633 1.89323 11.4863L0.559893 9.17968C0.473226 9.03301 0.513226 8.85301 0.639893 8.75301L2.04656 7.64634L1.99989 6.99967L2.04656 6.33301L0.639893 5.24634C0.513226 5.14634 0.473226 4.96634 0.559893 4.81967L1.89323 2.51301C1.97323 2.36634 2.15323 2.30634 2.29989 2.36634L3.95989 3.03301C4.30656 2.77301 4.66656 2.54634 5.08656 2.37967L5.33323 0.613008C5.35989 0.453008 5.49989 0.333008 5.66656 0.333008H8.33323C8.49989 0.333008 8.63989 0.453008 8.66656 0.613008L8.91323 2.37967C9.33323 2.54634 9.69323 2.77301 10.0399 3.03301L11.6999 2.36634C11.8466 2.30634 12.0266 2.36634 12.1066 2.51301L13.4399 4.81967C13.5266 4.96634 13.4866 5.14634 13.3599 5.24634L11.9532 6.33301L11.9999 6.99967L11.9532 7.66634L13.3599 8.75301C13.4866 8.85301 13.5266 9.03301 13.4399 9.17968L12.1066 11.4863C12.0266 11.633 11.8466 11.693 11.6999 11.633L10.0399 10.9663C9.69323 11.2263 9.33323 11.453 8.91323 11.6197L8.66656 13.3863C8.63989 13.5463 8.49989 13.6663 8.33323 13.6663H5.66656ZM6.49989 1.66634L6.25323 3.40634C5.45323 3.57301 4.74656 3.99967 4.23323 4.59301L2.62656 3.89967L2.12656 4.76634L3.53323 5.79967C3.26656 6.57967 3.26656 7.42634 3.53323 8.19967L2.11989 9.23967L2.61989 10.1063L4.23989 9.41301C4.75323 9.99967 5.45323 10.4263 6.24656 10.5863L6.49323 12.333H7.50656L7.75323 10.593C8.54656 10.4263 9.24656 9.99967 9.75989 9.41301L11.3799 10.1063L11.8799 9.23967L10.4666 8.20634C10.7332 7.42634 10.7332 6.57967 10.4666 5.79967L11.8732 4.76634L11.3732 3.89967L9.76656 4.59301C9.25323 3.99967 8.54656 3.57301 7.74656 3.41301L7.49989 1.66634H6.49989Z" fill="black"/>
</svg>
