<svg width="26" height="16" viewBox="0 0 26 16" fill="none" xmlns="http://www.w3.org/2000/svg">
<path d="M4.99956 0H11.3801C12.269 0 12.8291 0.730594 12.6099 1.61948L9.63883 14.3805C9.43183 15.2694 8.54294 16 7.64187 16H1.27353C0.384644 16 -0.163301 15.2694 0.0437008 14.3805L3.01478 1.61948C3.22178 0.730594 4.11067 0 4.99956 0Z" fill="#DF3232"/>
<path d="M10.8568 0H18.1992C19.0881 0 18.6863 0.730594 18.4793 1.61948L15.5082 14.3805C15.3012 15.2694 15.3621 16 14.4732 16H7.13075C6.24186 16 5.68174 15.2694 5.88874 14.3805L8.85982 1.61948C9.06682 0.730594 9.95571 0 10.8568 0Z" fill="#004889"/>
<path d="M17.907 0H24.2876C25.1764 0 25.7366 0.730594 25.5296 1.61948L22.5463 14.3805C22.3393 15.2694 21.4504 16 20.5494 16H14.1688C13.2799 16 12.7198 15.2694 12.9268 14.3805L15.8979 1.61948C16.1171 0.730594 17.006 0 17.907 0Z" fill="#008089"/>
<path fill-rule="evenodd" clip-rule="evenodd" d="M16.8352 12.0064H17.4319L17.6145 11.4341H17.0057L16.8352 12.0064ZM17.3223 10.3991L17.1153 11.081C17.1153 11.081 17.3466 10.9592 17.4684 10.9227C17.5902 10.8983 17.785 10.874 17.785 10.874L17.9311 10.3991H17.3223ZM17.6145 9.42496L17.4197 10.0825C17.4197 10.0825 17.6389 9.98508 17.7606 9.94855C17.8824 9.91202 18.065 9.89985 18.065 9.89985L18.2112 9.42496H17.6145ZM18.9539 9.42496L18.1746 11.9942H18.3816L18.2233 12.53H18.0163L17.9676 12.7005H17.2249L17.2736 12.53H15.7637L15.922 12.0429H16.0681L16.8596 9.42496L17.0179 8.90137H17.7728L17.6876 9.16925C17.6876 9.16925 17.8946 9.02313 18.0772 8.97443C18.272 8.92572 19.3679 8.90137 19.3679 8.90137L19.2096 9.42496H18.9539Z" fill="white"/>
<path d="M19.2824 8.90137H20.086L20.0982 9.20578C20.0982 9.25449 20.1347 9.27884 20.2321 9.27884H20.4026L20.2565 9.77808H19.8181C19.4406 9.80243 19.2945 9.64414 19.3067 9.46149L19.2824 8.90137ZM19.3919 11.2514H18.6248L18.7588 10.8131H19.6355L19.7572 10.4113H18.8927L19.0388 9.91202H21.4498L21.3037 10.4113H20.5L20.3661 10.8131H21.1819L21.048 11.2514H20.1712L20.0129 11.4341H20.3661L20.4513 11.9942C20.4635 12.0551 20.4635 12.0794 20.4757 12.1038C20.4878 12.1282 20.5974 12.1403 20.6583 12.1403H20.7679L20.6096 12.6761H20.3417C20.293 12.6761 20.2321 12.6761 20.1469 12.6761C20.0617 12.6639 20.0129 12.6152 19.9521 12.5909C19.9034 12.5665 19.8303 12.5056 19.8059 12.396L19.7207 11.8359L19.3189 12.3839C19.1971 12.5543 19.0266 12.6883 18.7344 12.6883H18.1743L18.3204 12.2012H18.5396C18.6005 12.2012 18.6492 12.1769 18.6979 12.1525C18.7344 12.1403 18.7709 12.116 18.8196 12.0551L19.3919 11.2514ZM10.9779 10.046H13.0114L12.8653 10.533H12.0495L11.9277 10.947H12.7557L12.6096 11.4463H11.7816L11.5746 12.116C11.5502 12.189 11.7694 12.2012 11.8546 12.2012L12.2687 12.1403L12.0982 12.7005H11.1606C11.0875 12.7005 11.0266 12.6883 10.9414 12.6761C10.8683 12.6639 10.8318 12.6152 10.7953 12.5665C10.7588 12.5056 10.7101 12.4691 10.7466 12.3473L11.0145 11.4584H10.5518L10.6979 10.947H11.1606L11.2824 10.533H10.8196L10.9779 10.046ZM12.3417 9.16925H13.1697L13.0236 9.68067H11.879L11.7572 9.79026C11.7085 9.83896 11.6842 9.82679 11.6111 9.85114C11.5502 9.88767 11.4163 9.94855 11.2336 9.94855H10.8683L11.0145 9.46149H11.1241C11.2215 9.46149 11.2824 9.44931 11.3067 9.43714C11.3432 9.41278 11.3798 9.36408 11.4285 9.27884L11.6355 8.90137H12.4635L12.3417 9.16925Z" fill="white"/>
<path fill-rule="evenodd" clip-rule="evenodd" d="M13.9494 10.0094C13.9494 10.0094 14.1808 9.80243 14.5704 9.72937C14.6556 9.7172 15.2158 9.7172 15.2158 9.7172L15.301 9.43714H14.1199L13.9494 10.0094ZM15.0453 10.2164H13.8763L13.8033 10.4478H14.8139C14.9357 10.4356 14.9601 10.4478 14.9722 10.4478L15.0453 10.2164ZM13.5354 8.90137H14.2416L14.1442 9.25449C14.1442 9.25449 14.3634 9.07184 14.5217 9.01096C14.68 8.95007 15.0331 8.90137 15.0331 8.90137H16.1777L15.7881 10.2043C15.715 10.4234 15.6419 10.5696 15.5932 10.6426C15.5445 10.7157 15.4958 10.7644 15.3984 10.8253C15.301 10.874 15.2158 10.9105 15.1305 10.9105C15.0575 10.9227 14.9357 10.9227 14.7774 10.9227H13.6693L13.3528 11.9577C13.3284 12.0551 13.304 12.1038 13.3284 12.1403C13.3406 12.1647 13.3771 12.189 13.438 12.189L13.9251 12.1403L13.7546 12.7126H13.2066C13.0362 12.7126 12.9022 12.7126 12.817 12.7005C12.7318 12.6883 12.6465 12.7005 12.5856 12.6517C12.5369 12.603 12.4639 12.5422 12.4639 12.4813C12.4639 12.4204 12.4882 12.3352 12.5247 12.2012L13.5354 8.90137Z" fill="white"/>
<path d="M15.6054 11.0076L15.5445 11.3242C15.5201 11.4216 15.4958 11.4946 15.4105 11.5555C15.3375 11.6164 15.2401 11.6895 15.0331 11.6895L14.6434 11.7138V12.0669C14.6434 12.1643 14.6678 12.1522 14.6799 12.1765C14.7043 12.2009 14.7165 12.2009 14.7287 12.213L14.8504 12.2009L15.2279 12.1765L15.0696 12.7001H14.6312C14.3268 12.7001 14.1076 12.6879 14.0346 12.627C13.9615 12.5783 13.9494 12.5175 13.9494 12.42L13.9737 11.0441H14.6678L14.6556 11.3242H14.8261C14.8748 11.3242 14.9235 11.312 14.9478 11.2998C14.9722 11.2876 14.9844 11.2633 14.9965 11.2267L15.0696 11.0076H15.6054ZM5.75453 4.0791C5.73017 4.18869 5.29182 6.23435 5.29182 6.23435C5.19441 6.64836 5.12135 6.94059 4.88999 7.13542C4.75605 7.24501 4.59775 7.29371 4.41511 7.29371C4.12287 7.29371 3.9524 7.1476 3.92804 6.87971L3.91587 6.7823L4.0011 6.22218C4.0011 6.22218 4.46381 4.35916 4.54905 4.11563C4.54905 4.10345 4.56122 4.09128 4.56122 4.09128C3.66016 4.10345 3.48969 4.09128 3.48969 4.0791C3.48969 4.10345 3.46533 4.21304 3.46533 4.21304L2.99045 6.30741L2.95392 6.49006L2.88086 7.07454C2.88086 7.24501 2.91739 7.39113 2.97827 7.51289C3.19745 7.89037 3.80628 7.95125 4.1594 7.95125C4.60993 7.95125 5.02393 7.85384 5.31617 7.68336C5.81541 7.39113 5.93718 6.92842 6.05894 6.52659L6.10765 6.31959C6.10765 6.31959 6.58253 4.38352 6.66777 4.12781C6.66777 4.11563 6.66777 4.10345 6.66777 4.10345C6.01024 4.09128 5.81541 4.09128 5.75453 4.0791ZM8.40902 7.91472C8.09243 7.91472 7.97066 7.91472 7.59319 7.92689L7.58101 7.90254C7.61754 7.75642 7.65407 7.62248 7.67842 7.47636L7.72713 7.28154C7.80019 6.97712 7.86107 6.624 7.87325 6.51441C7.88543 6.45353 7.8976 6.28306 7.71495 6.28306C7.64189 6.28306 7.55666 6.31959 7.47142 6.35612C7.42272 6.51441 7.33748 6.96495 7.28877 7.18412C7.19136 7.62248 7.19136 7.67119 7.14266 7.89037L7.1183 7.91472C6.78954 7.91472 6.66777 7.91472 6.2903 7.92689L6.27812 7.89037C6.339 7.63466 6.39989 7.36677 6.46077 7.11107C6.61906 6.40482 6.65559 6.13694 6.7043 5.78382L6.72865 5.75947C7.09395 5.71076 7.19136 5.69858 7.59319 5.61335L7.62972 5.64988L7.56883 5.86906C7.62972 5.83253 7.70278 5.796 7.76366 5.75947C7.95849 5.66205 8.16549 5.6377 8.28725 5.6377C8.45772 5.6377 8.65255 5.68641 8.73779 5.89341C8.81084 6.07606 8.76214 6.29524 8.66473 6.74577L8.61602 6.96495C8.51861 7.45201 8.49425 7.54942 8.44555 7.87819L8.40902 7.91472ZM9.71191 7.91472C9.51709 7.91472 9.39532 7.91472 9.27355 7.91472C9.15179 7.91472 9.03002 7.92689 8.85955 7.92689L8.84737 7.91472L8.8352 7.90254C8.8839 7.71989 8.90826 7.64683 8.93261 7.58595C8.95696 7.52507 8.98132 7.45201 9.01785 7.26936C9.07873 7.02583 9.11526 6.85536 9.13961 6.69706C9.16396 6.55094 9.17614 6.42918 9.20049 6.28306L9.21267 6.27088L9.22485 6.25871C9.41967 6.23435 9.54144 6.21 9.6632 6.19782C9.78497 6.18565 9.91891 6.16129 10.1137 6.11259L10.1259 6.12476V6.13694C10.0894 6.29524 10.0529 6.44135 10.0163 6.59965C9.97979 6.75795 9.94326 6.90406 9.90673 7.06236C9.83368 7.39113 9.80932 7.50072 9.78497 7.59813C9.77279 7.68336 9.76062 7.73207 9.73626 7.89037L9.72409 7.90254L9.71191 7.91472ZM11.7576 6.7823C11.7332 6.86753 11.6723 7.17195 11.5627 7.30589C11.4897 7.4033 11.4166 7.46419 11.3192 7.46419C11.2949 7.46419 11.1366 7.46419 11.1366 7.23283C11.1366 7.11107 11.1609 7.00148 11.1853 6.86753C11.2705 6.49006 11.3679 6.18565 11.6236 6.18565C11.8306 6.16129 11.8428 6.40482 11.7576 6.7823ZM12.5978 6.80665C12.7073 6.31959 12.6221 6.08823 12.5125 5.94212C12.342 5.72294 12.0498 5.66205 11.7454 5.66205C11.5627 5.66205 11.1244 5.67423 10.7834 5.99082C10.5399 6.22218 10.4182 6.52659 10.3573 6.81883C10.2842 7.12324 10.2111 7.65901 10.7104 7.86601C10.8687 7.9269 11.0879 7.95125 11.234 7.95125C11.5993 7.95125 11.9768 7.85384 12.2568 7.54942C12.4638 7.31807 12.5612 6.95277 12.5978 6.80665ZM20.4395 7.95125C20.0498 7.95125 19.9402 7.95125 19.5749 7.96342L19.5506 7.93907C19.648 7.57377 19.7454 7.20848 19.8306 6.831C19.9402 6.34394 19.9646 6.13694 20.0011 5.85688L20.0255 5.83253C20.4151 5.77164 20.5125 5.75947 20.9143 5.68641L20.9265 5.72294C20.8535 6.02735 20.7804 6.33177 20.7073 6.63618C20.5612 7.26936 20.5125 7.59813 20.4516 7.92689L20.4395 7.95125Z" fill="white"/>
<path d="M19.8549 6.81877C19.8306 6.89183 19.7575 7.20842 19.6601 7.34236C19.5992 7.43977 19.4409 7.48848 19.3435 7.48848C19.3191 7.48848 19.1609 7.48848 19.1609 7.25712C19.1609 7.14753 19.1852 7.02577 19.2096 6.89183C19.2948 6.52653 19.3922 6.20994 19.6479 6.20994C19.8549 6.20994 19.9523 6.44129 19.8549 6.81877ZM20.622 6.8553C20.7316 6.36823 20.2811 6.80659 20.208 6.64829C20.0984 6.39259 20.1593 5.88117 19.721 5.7107C19.5505 5.64982 19.1487 5.73505 18.7956 6.03947C18.552 6.27082 18.4303 6.57524 18.3694 6.86747C18.2963 7.15971 18.2233 7.70766 18.7225 7.90248C18.8808 7.96336 19.0269 7.98772 19.1609 7.98772C19.6601 7.96336 20.0497 7.20842 20.3298 6.904C20.5612 6.67265 20.5977 7.00142 20.622 6.8553ZM14.7895 7.91466C14.4607 7.91466 14.3511 7.91466 13.9858 7.92683L13.9736 7.90248C14.0102 7.75636 14.0467 7.62242 14.0711 7.4763L14.1198 7.28148C14.1928 6.97706 14.2537 6.62394 14.2659 6.51435C14.2781 6.45347 14.2902 6.283 14.1076 6.283C14.0345 6.283 13.9493 6.31953 13.864 6.35606C13.8153 6.51435 13.7301 6.96489 13.6814 7.18406C13.584 7.62242 13.584 7.67113 13.5475 7.8903L13.5231 7.91466C13.1943 7.91466 13.0726 7.91466 12.6951 7.92683L12.6829 7.8903C12.7438 7.6346 12.8047 7.36671 12.8656 7.111C13.0239 6.40476 13.0604 6.13688 13.1091 5.78376L13.1335 5.75941C13.4988 5.7107 13.5962 5.69852 13.998 5.61329L14.0345 5.64982L13.9736 5.869C14.0345 5.83247 14.1076 5.79594 14.1685 5.75941C14.3633 5.66199 14.5703 5.63764 14.6799 5.63764C14.8504 5.63764 15.0452 5.68635 15.1304 5.89335C15.2035 6.076 15.1548 6.29517 15.0574 6.74571L15.0086 6.96489C14.8991 7.45195 14.8869 7.54936 14.826 7.87813L14.7895 7.91466ZM17.5657 4.06686H17.2978C16.6038 4.07904 16.3237 4.06686 16.2141 4.05469C16.202 4.10339 16.1776 4.20081 16.1776 4.20081L15.9341 5.35758C15.9341 5.35758 15.3374 7.80507 15.3131 7.92683C15.9097 7.91466 16.1654 7.91466 16.2628 7.92683C16.2872 7.81724 16.4333 7.12318 16.4333 7.12318C16.4333 7.12318 16.5551 6.62394 16.5551 6.59959C16.5551 6.59959 16.5916 6.55088 16.6281 6.52653H16.6768C17.2004 6.52653 17.7971 6.52653 18.2598 6.18559C18.5764 5.95423 18.7834 5.60111 18.8808 5.18711C18.9051 5.0897 18.9295 4.96793 18.9295 4.83399C18.9295 4.67569 18.893 4.5174 18.8077 4.39563C18.5764 4.07904 18.1137 4.07904 17.5657 4.06686ZM17.9188 5.27234C17.858 5.52805 17.6997 5.74723 17.4805 5.84464C17.31 5.92988 17.0908 5.94205 16.8717 5.94205H16.7255L16.7377 5.88117L17.0056 4.73658L17.0178 4.67569V4.62699L17.1274 4.63916C17.1274 4.63916 17.6753 4.68787 17.6875 4.68787C17.8945 4.7731 17.9797 4.99228 17.9188 5.27234ZM23.6175 5.68635L23.5809 5.64982C23.1791 5.73505 23.1182 5.74723 22.7529 5.79594L22.7286 5.82029V5.83247C22.4607 6.45347 22.4607 6.31953 22.2415 6.81877C22.2415 6.79441 22.2415 6.78224 22.2415 6.75788L22.1928 5.68635L22.1563 5.64982C21.7423 5.73505 21.7301 5.74723 21.3526 5.79594L21.3283 5.82029C21.3283 5.83247 21.3283 5.84464 21.3161 5.85682C21.3648 6.10035 21.3526 6.05164 21.4013 6.42912C21.4257 6.62394 21.45 6.80659 21.4744 7.00142C21.5109 7.31801 21.5353 7.46412 21.584 7.93901C21.3283 8.36519 21.2674 8.53566 21.0117 8.90096L21.0239 8.93749C21.4013 8.92531 21.4866 8.92531 21.7666 8.92531L21.8275 8.85225C22.0223 8.42607 23.6175 5.68635 23.6175 5.68635ZM10.065 5.94205C10.2841 5.79594 10.3085 5.58893 10.1258 5.49152C9.9432 5.38193 9.62661 5.41846 9.40743 5.56458C9.18825 5.7107 9.1639 5.9177 9.34655 6.02729C9.52919 6.1247 9.84579 6.08817 10.065 5.94205Z" fill="white"/>
<path d="M21.7788 8.90137L21.4622 9.43714C21.3648 9.61978 21.1821 9.75373 20.8899 9.75373H20.3906L20.5367 9.26666H20.6342C20.6829 9.26666 20.7194 9.26666 20.7559 9.25449C20.7803 9.24231 20.8046 9.23013 20.8168 9.1936L20.9995 8.90137H21.7788Z" fill="white"/>
</svg>
