<svg width="16" height="12" viewBox="0 0 16 12" fill="none" xmlns="http://www.w3.org/2000/svg">
<path d="M7.33333 4.66699V6.00033H6V7.33366H4.66667V6.00033H3.86667C3.6 6.80033 2.86667 7.33366 2 7.33366C0.866667 7.33366 0 6.46699 0 5.33366C0 4.20033 0.866667 3.33366 2 3.33366C2.86667 3.33366 3.6 3.86699 3.86667 4.66699H7.33333ZM2 4.66699C1.6 4.66699 1.33333 4.93366 1.33333 5.33366C1.33333 5.73366 1.6 6.00033 2 6.00033C2.4 6.00033 2.66667 5.73366 2.66667 5.33366C2.66667 4.93366 2.4 4.66699 2 4.66699ZM10.6667 7.33366C12.4667 7.33366 16 8.20033 16 10.0003V11.3337H5.33333V10.0003C5.33333 8.20033 8.86667 7.33366 10.6667 7.33366ZM10.6667 6.00033C9.2 6.00033 8 4.80033 8 3.33366C8 1.86699 9.2 0.666992 10.6667 0.666992C12.1333 0.666992 13.3333 1.86699 13.3333 3.33366C13.3333 4.80033 12.1333 6.00033 10.6667 6.00033Z" fill="white"/>
</svg>
