<svg width="31" height="10" viewBox="0 0 31 10" fill="none" xmlns="http://www.w3.org/2000/svg">
<path fill-rule="evenodd" clip-rule="evenodd" d="M11.6064 0.118064L7.57291 9.55929H4.95468L2.97185 2.02363C2.97185 1.67494 2.68927 1.32547 2.4067 1.18615C1.62841 0.838258 0.778285 0.558838 0 0.418735L0.0718418 0.118064H4.24664C4.8118 0.118064 5.3083 0.558838 5.37855 1.1161L6.44021 6.55966L8.9882 0.118064H11.6064ZM21.7968 6.48961C21.7968 3.9772 18.3292 3.83788 18.3292 2.79104C18.3292 2.44236 18.682 2.09289 19.3909 2.02363C20.2386 1.95436 21.0887 2.09289 21.7968 2.44236L22.2206 0.418735C21.5134 0.139316 20.6641 0 19.8858 0C17.4791 0 15.711 1.25621 15.711 3.13973C15.711 4.46599 16.9131 5.23341 17.9046 5.72219C18.8944 6.20941 19.1777 6.48961 19.1777 6.90835C19.1777 7.53566 18.3995 7.81508 17.693 7.81508C16.8421 7.81508 15.9225 7.60572 15.1442 7.25624L14.7196 9.34992C15.5681 9.69939 16.5595 9.83871 17.4791 9.83871C20.0981 9.69939 21.7976 8.44319 21.7976 6.48961H21.7968ZM28.2362 9.55929H30.5L28.5188 0.118064H26.3962C25.9013 0.118064 25.5461 0.418735 25.3346 0.838258L21.6547 9.55929H24.2729L24.7686 8.16377H27.9536L28.2362 9.55929ZM25.4759 6.20941L26.7507 2.65173L27.5281 6.20941H25.4767H25.4759ZM15.1442 0.118064L13.0928 9.55929H10.615L12.6673 0.118064H15.1442Z" fill="#1A2070"/>
</svg>
